<?xml version="1.0" encoding="UTF-8" standalone="no"?>
<svg
   xmlns:dc="http://purl.org/dc/elements/1.1/"
   xmlns:cc="http://creativecommons.org/ns#"
   xmlns:rdf="http://www.w3.org/1999/02/22-rdf-syntax-ns#"
   xmlns:svg="http://www.w3.org/2000/svg"
   xmlns="http://www.w3.org/2000/svg"
   id="svg5"
   version="1.1"
   viewBox="0 0 48.211002 47.708443"
   height="47.708443mm"
   width="48.211002mm">
  <title
     id="title715">BRAND_Overte_v100</title>
  <defs
     id="defs2" />
  <g
     transform="translate(-14.40438,-53.683247)"
     style="display:inline"
     id="layer1">
    <path
       id="path339"
       d="m 36.11664,101.33313 c -5.888113,-0.62444 -11.006776,-3.133387 -15.093458,-7.398178 -3.528759,-3.682549 -5.736528,-8.26022 -6.483571,-13.443302 -0.202845,-1.407347 -0.17161,-5.278946 0.05427,-6.726266 0.942013,-6.036009 3.87785,-11.224899 8.559302,-15.127996 1.73955,-1.450325 4.269156,-2.942522 6.470998,-3.817188 0.872926,-0.34676 3.073959,-1.034036 3.31155,-1.034036 0.127643,0 0.148388,0.889315 0.148388,6.361433 v 6.361444 l -0.38591,0.183457 c -1.117024,0.531013 -2.965409,2.165738 -3.963295,3.505164 -3.101027,4.162375 -3.074364,10.117356 0.06391,14.261293 2.889844,3.815965 7.391439,5.561193 12.064161,4.677177 4.747187,-0.898098 8.668079,-4.904145 9.518334,-9.725044 0.174638,-0.990163 0.17506,-3.225536 8.75e-4,-4.219365 -0.336741,-1.920543 -1.194508,-3.855162 -2.349845,-5.299941 -1.022062,-1.278106 -2.929103,-2.853833 -4.119019,-3.403418 l -0.429758,-0.198479 -0.003,-6.30332 c -0.002,-4.458678 0.02999,-6.303318 0.108836,-6.303318 0.240913,0 1.766991,0.427654 2.762094,0.77403 8.88394,3.092297 15.149349,10.940461 16.159397,20.241556 0.139313,1.282897 0.139313,3.922237 0,5.205132 -0.495994,4.567352 -2.53993,9.385831 -5.44407,12.834125 -3.879648,4.606582 -9.040636,7.51493 -14.982517,8.44304 -1.199866,0.18742 -4.775246,0.27847 -5.967914,0.152 z"
       style="fill:#ffffff;stroke-width:0.102911" />
  </g>
  <g
     transform="translate(-14.40438,-53.683247)"
     style="display:inline"
     id="layer2" />
  <metadata
     id="metadata713">
    <rdf:RDF>
      <cc:Work
         rdf:about="">
        <dc:title>BRAND_Overte_v100</dc:title>
        <dc:format>image/svg+xml</dc:format>
        <dc:type
           rdf:resource="http://purl.org/dc/dcmitype/StillImage" />
      </cc:Work>
    </rdf:RDF>
  </metadata>
</svg>
