<?xml version="1.0" encoding="UTF-8" standalone="no"?>
<svg
   xmlns:dc="http://purl.org/dc/elements/1.1/"
   xmlns:cc="http://creativecommons.org/ns#"
   xmlns:rdf="http://www.w3.org/1999/02/22-rdf-syntax-ns#"
   xmlns:svg="http://www.w3.org/2000/svg"
   xmlns="http://www.w3.org/2000/svg"
   id="svg5"
   version="1.1"
   viewBox="0 0 143.66425 48.059064"
   height="48.059063mm"
   width="143.66425mm">
  <title
     id="title715">BRAND_Overte_v100</title>
  <defs
     id="defs2" />
  <g
     transform="translate(-54.798351,-53.065788)"
     style="display:inline"
     id="layer1">
    <path
       id="path339"
       d="m 77.888887,88.16073 c -1.463784,-0.383774 -2.728764,-1.26729 -3.57418,-2.496361 -0.33801,-0.4914 -8.637012,-18.544354 -8.777062,-19.092879 l -0.05948,-0.232949 3.419049,0.02713 3.419039,0.02713 0.229371,0.617462 c 0.126159,0.339603 1.651065,3.905487 3.388688,7.924174 2.165975,5.009371 3.240735,7.379514 3.418253,7.538264 0.320814,0.286867 0.754377,0.296675 1.099918,0.02488 0.196415,-0.154496 1.087176,-2.135277 3.528809,-7.84699 1.796337,-4.202173 3.312975,-7.790827 3.370303,-7.974786 l 0.104238,-0.33446 h 3.38574 3.38574 l -0.06794,0.231553 c -0.214505,0.730801 -8.303141,18.453054 -8.701271,19.06453 -0.866525,1.330854 -2.200906,2.264462 -3.686694,2.579407 -0.99003,0.209864 -2.977581,0.181152 -3.882489,-0.05609 z m 19.04121,-0.305349 c -1.001533,-0.239252 -1.696242,-1.000659 -1.895076,-2.077 -0.07001,-0.379154 -0.09714,-3.491734 -0.07836,-9.012108 l 0.02861,-8.432915 0.310315,-0.606667 c 0.365911,-0.715365 0.92869,-1.118538 1.787685,-1.2807 0.351783,-0.06646 4.215509,-0.104649 10.574139,-0.104649 h 10.0198 v 2.881517 2.881518 h -8.33345 -8.33344 l -0.16011,0.244363 c -0.12695,0.193761 -0.1541,0.497498 -0.13102,1.466489 l 0.0291,1.222114 8.41299,0.02634 8.41301,0.02635 v 2.057026 2.057019 l -8.41301,0.02632 -8.41299,0.02632 -0.0289,1.325334 c -0.0231,1.061092 0.003,1.374005 0.13102,1.569407 l 0.1599,0.244051 h 8.33345 8.33344 v 2.778608 2.778608 l -10.21395,-0.01 c -5.61767,-0.0056 -10.35759,-0.04487 -10.533162,-0.08685 z M 120.45581,77.530123 c 0,-9.469237 0.0153,-10.44452 0.16782,-10.6622 0.37432,-0.534416 0.24089,-0.52658 8.96496,-0.52658 8.31381,0 9.23569,0.03638 10.44534,0.412032 3.03028,0.941068 4.88093,4.087705 4.25743,7.238833 -0.22085,1.116136 -0.57019,1.819521 -1.26596,2.548963 -0.5405,0.566659 -0.57662,0.632312 -0.40177,0.730163 0.81769,0.457602 1.51976,1.593986 1.70347,2.757216 0.0581,0.367903 0.11753,2.301381 0.13207,4.296613 l 0.0264,3.627681 -2.89258,-5.6e-5 -2.89258,-6.7e-5 -0.0662,-0.632567 c -0.0363,-0.347911 -0.0662,-1.768897 -0.0662,-3.157751 0,-2.33308 -0.016,-2.558271 -0.21036,-2.959772 -0.40428,-0.8351 -0.20901,-0.810021 -6.55606,-0.842186 l -5.58293,-0.02832 v 3.810289 3.810288 h -2.88152 -2.88152 z m 16.94239,-2.360447 c 0.76427,-0.418421 1.19288,-1.313478 0.97584,-2.037898 -0.17043,-0.568816 -0.66693,-1.104853 -1.14184,-1.232732 -0.24902,-0.06705 -2.31034,-0.09556 -5.67646,-0.07866 l -5.28543,0.02665 -0.0282,1.779496 -0.0282,1.779502 5.431,-0.02999 c 4.89984,-0.02699 5.46255,-0.04731 5.75325,-0.206398 z m 18.35619,4.858874 v -7.924172 h -4.73391 -4.73392 V 69.22286 66.341343 h 12.40081 12.40082 v 2.881517 2.881518 h -4.73394 -4.73392 v 7.924172 7.924171 h -2.93296 -2.93298 z m 19.49121,7.826831 c -1.00153,-0.239252 -1.69624,-1.000659 -1.89508,-2.077 -0.07,-0.379154 -0.0971,-3.491734 -0.0783,-9.012108 l 0.0287,-8.432915 0.31031,-0.606667 c 0.36592,-0.715365 0.9287,-1.118538 1.78769,-1.2807 0.35179,-0.06646 4.21551,-0.104649 10.57414,-0.104649 h 10.01981 v 2.881517 2.881518 h -8.33345 -8.33344 l -0.16012,0.244363 c -0.12695,0.193761 -0.1541,0.497498 -0.13101,1.466489 l 0.0291,1.222114 8.413,0.02634 8.413,0.02635 v 2.057026 2.057019 l -8.413,0.02632 -8.413,0.02632 -0.0289,1.325334 c -0.0231,1.061092 0.003,1.374005 0.131,1.569407 l 0.15991,0.244051 h 8.33344 8.33344 v 2.778608 2.778608 l -10.21395,-0.01 c -5.61767,-0.0056 -10.3576,-0.04487 -10.53317,-0.08685 z"
       style="fill:#ffffff;stroke-width:0.102911" />
  </g>
  <g
     transform="translate(-54.798351,-53.065788)"
     style="display:inline"
     id="layer2">
    <path
       id="path619"
       d="m 54.798406,101.0251 c 0,-0.0552 0.136403,-0.1708 0.303118,-0.25702 1.115608,-0.5769 4.205614,-3.465336 5.702481,-5.330496 1.022829,-1.274476 2.377963,-3.305238 2.844777,-4.263059 l 0.36019,-0.739048 67.226798,-0.0067 67.22682,-0.0067 v 5.351385 5.351388 H 126.6305 c -46.557272,0 -71.832094,-0.0353 -71.832094,-0.1003 z m 9.121295,-37.496108 c -0.100817,-0.40166 -1.48678,-2.625729 -2.387884,-3.831858 -1.661811,-2.224325 -3.532043,-4.126981 -5.568939,-5.665466 -0.553449,-0.418039 -1.041872,-0.760059 -1.085377,-0.760059 -0.04345,0 -0.07915,-0.0463 -0.07915,-0.102916 0,-0.06853 24.012634,-0.102905 71.832099,-0.102905 h 71.83209 v 5.351386 5.351386 H 131.22116 63.979781 Z"
       style="fill:#6667ab;fill-opacity:1;stroke-width:0.102911" />
  </g>
  <metadata
     id="metadata713">
    <rdf:RDF>
      <cc:Work
         rdf:about="">
        <dc:title>BRAND_Overte_v100</dc:title>
        <dc:format>image/svg+xml</dc:format>
        <dc:type
           rdf:resource="http://purl.org/dc/dcmitype/StillImage" />
      </cc:Work>
    </rdf:RDF>
  </metadata>
</svg>
